<?xml version="1.0" standalone="no"?>
<!DOCTYPE svg PUBLIC "-//W3C//DTD SVG 20010904//EN"
 "http://www.w3.org/TR/2001/REC-SVG-20010904/DTD/svg10.dtd">
<svg version="1.0" xmlns="http://www.w3.org/2000/svg"
 width="300.000000pt" height="245.000000pt" viewBox="0 0 300.000000 245.000000"
 preserveAspectRatio="xMidYMid meet">
<metadata>
Created by potrace 1.10, written by Peter Selinger 2001-2011
</metadata>
<g transform="translate(0.000000,245.000000) scale(0.050000,-0.050000)"
fill="#109e0e" stroke="none">
<path d="M2080 4873 c0 -15 -18 -50 -39 -78 -22 -27 -33 -57 -25 -66 8 -8 3
-9 -11 -1 -51 29 -344 -261 -313 -310 5 -10 1 -18 -11 -18 -11 0 -21 -17 -21
-38 0 -20 -13 -48 -28 -60 -16 -14 -23 -42 -17 -66 7 -27 4 -38 -10 -29 -24
15 -89 -240 -125 -497 -49 -345 -61 -357 -193 -195 -46 56 -89 97 -95 90 -7
-6 -12 12 -12 42 0 29 -9 53 -20 53 -11 0 -20 18 -20 41 0 110 -138 270 -228
264 -49 -4 -148 -99 -181 -175 -59 -137 -71 -174 -71 -211 0 -21 -8 -39 -18
-39 -10 0 -31 -34 -48 -75 -17 -41 -72 -172 -122 -291 -50 -119 -82 -210 -72
-204 11 7 20 4 20 -7 0 -10 -13 -24 -30 -30 -16 -6 -24 -25 -18 -42 8 -20 -12
-44 -61 -73 -93 -55 -111 -91 -111 -227 0 -126 -42 -226 -139 -329 -97 -105
-88 -266 21 -360 102 -87 207 -97 252 -22 25 42 25 44 1 15 -28 -33 -38 -29
-157 67 -156 124 -162 143 -62 205 93 59 179 165 251 307 66 131 68 123 -27
138 -105 17 -137 56 -90 108 46 51 70 51 70 0 0 -22 9 -40 20 -40 11 0 20 -14
20 -31 0 -21 15 -30 44 -25 48 7 199 363 389 916 52 149 101 278 109 288 26
29 78 -28 78 -85 1 -75 55 -185 199 -403 69 -104 157 -257 195 -339 54 -115
74 -142 89 -120 17 24 19 23 10 -5 -14 -42 23 -176 48 -176 10 0 20 38 22 85
10 340 154 1173 247 1432 44 123 210 323 269 323 54 0 155 -124 536 -654 185
-257 190 -577 11 -768 l-90 -97 45 -109 c75 -181 122 -214 404 -283 30 -7 55
-21 55 -31 0 -10 23 -18 50 -18 28 0 50 -9 50 -20 0 -11 16 -20 35 -20 27 -1
29 -5 8 -18 -14 -9 -26 -24 -25 -34 0 -10 -53 -17 -120 -16 -90 1 -118 -4
-110 -24 5 -14 16 -56 23 -95 l13 -69 67 72 c38 39 73 67 79 61 14 -14 -51
-101 -240 -318 -206 -237 -205 -228 -26 -213 200 17 316 71 161 75 -30 1 -73
10 -95 21 -27 12 -4 15 75 7 93 -10 117 -6 127 20 7 17 21 31 32 31 11 0 15
-13 10 -28 -7 -18 6 -31 36 -37 39 -7 48 1 58 53 23 116 36 1160 16 1280 -21
131 -12 192 27 192 15 0 36 16 47 35 12 19 21 29 21 21 1 -8 -17 -46 -38 -85
-34 -59 -37 -87 -23 -185 10 -64 18 -91 20 -60 3 86 95 439 136 526 47 100
245 259 341 275 285 46 839 -632 933 -1143 34 -182 12 -399 -44 -445 -360
-301 -935 -526 -1206 -472 -63 13 -68 5 -88 -167 -20 -160 -69 -320 -99 -320
-15 0 -32 -20 -39 -45 -8 -32 -17 -38 -28 -20 -11 17 -55 -8 -152 -88 -147
-122 -147 -146 -2 -146 217 0 400 192 459 483 10 53 36 136 41 136 178 0 808
215 777 266 -8 12 -3 14 11 5 15 -9 118 48 264 147 175 118 226 162 191 162
-62 0 -108 50 -62 68 18 6 52 12 76 12 50 0 46 595 -4 645 -13 13 -23 44 -23
69 0 25 -9 46 -20 46 -11 0 -20 18 -20 40 0 54 -46 200 -63 200 -7 0 -9 -55
-4 -122 5 -71 1 -117 -9 -110 -18 11 -55 275 -46 327 3 23 -23 34 -64 27 -10
-2 -12 5 -6 14 33 54 -479 554 -543 530 -19 -8 -27 -5 -18 9 7 11 -1 26 -17
32 -17 7 -30 4 -30 -6 0 -10 -25 -6 -55 10 -112 59 -182 40 -171 -46 l9 -75
-35 50 c-19 28 -37 53 -39 56 -3 4 -26 -10 -52 -30 -130 -101 -221 -219 -336
-438 l-125 -238 -28 -300 c-15 -165 -28 -304 -28 -310 -6 -59 -59 -81 -119
-51 -34 18 -70 28 -80 22 -10 -6 -21 -4 -24 5 -4 8 -36 36 -72 61 -36 25 -62
52 -58 60 5 7 2 30 -6 52 -9 24 7 89 44 176 71 170 72 621 0 674 -8 6 -18 29
-22 51 -9 59 -170 328 -188 317 -9 -6 -14 -3 -11 7 3 9 -40 106 -96 216 -55
110 -113 252 -127 315 -21 89 -36 115 -64 115 -43 0 -49 -31 -10 -54 15 -9 38
-87 51 -176 14 -88 29 -182 33 -210 5 -27 -9 0 -29 60 -21 61 -39 97 -40 80
-2 -27 -5 -27 -22 0 -15 24 -20 20 -21 -20 -1 -41 -9 -33 -45 45 -44 95 -44
95 -99 66 -30 -16 -55 -20 -55 -10 0 11 8 19 18 19 20 0 41 46 55 120 5 27 20
56 33 64 16 10 12 15 -11 16 -19 0 -35 -12 -35 -27z"/>
<path d="M5590 4525 c-33 -18 -104 -35 -159 -38 -119 -7 -216 -87 -223 -186
-5 -78 15 -77 105 8 61 57 91 70 175 75 87 5 103 12 108 50 11 75 58 98 110
52 72 -65 133 -81 83 -22 -89 104 -110 111 -199 61z"/>
<path d="M2005 4385 c-176 -257 -296 -635 -307 -970 -3 -81 -14 -137 -28 -142
-28 -11 -97 -486 -87 -603 6 -70 14 -81 62 -86 55 -7 77 24 30 43 -20 8 -20
10 0 11 14 1 25 29 25 67 1 44 6 56 18 38 27 -44 41 1 40 139 0 193 22 407 43
415 11 3 19 23 19 43 0 21 7 42 16 48 9 5 8 -50 -2 -123 -14 -91 -13 -151 2
-194 13 -33 19 -79 15 -101 -4 -22 -9 -101 -9 -175 -1 -74 -9 -135 -17 -135
-8 0 -12 61 -9 135 4 97 0 127 -15 105 -11 -16 -21 -77 -21 -134 0 -81 -7
-105 -35 -112 -19 -5 -2 -10 39 -12 54 -1 75 7 82 33 9 33 9 33 12 0 1 -19 18
-35 37 -35 30 1 31 3 5 20 -25 16 -24 19 6 20 32 0 36 18 34 155 -2 85 -1 160
1 165 13 33 23 138 32 345 6 129 18 235 27 235 48 0 51 -166 10 -580 -39 -394
-42 -366 32 -349 35 7 132 6 215 -3 l153 -17 -120 -12 c-83 -9 -28 -13 179
-16 l298 -3 -54 57 c-37 39 -91 65 -169 82 -214 48 -267 98 -213 203 17 33 26
80 19 104 -9 30 -7 36 6 17 23 -32 73 146 51 182 -8 13 -20 176 -26 364 -20
540 -249 990 -396 776z m130 -244 c56 -46 59 -70 5 -41 -32 17 -37 15 -28 -9
8 -20 -5 -33 -39 -42 -69 -17 -102 5 -63 44 16 16 40 23 53 15 16 -10 20 -1
12 29 -14 52 1 53 60 4z m24 -185 c38 -40 41 -67 38 -335 -2 -160 -7 -260 -12
-222 -6 53 -13 62 -28 40 -15 -22 -18 -17 -10 20 13 59 -45 166 -83 152 -16
-7 -21 -2 -12 12 10 16 -3 20 -39 13 -53 -10 -53 -10 -53 118 0 218 95 314
199 202z m-442 -1001 c-3 -159 -5 -170 -15 -75 -12 107 -6 260 10 260 4 0 7
-83 5 -185z"/>
<path d="M5634 4389 c-30 -40 -53 -49 -133 -49 -79 0 -102 -8 -127 -47 -17
-26 -58 -58 -91 -72 -67 -27 -53 -70 26 -77 51 -4 293 96 281 117 -5 8 6 13
24 12 19 -2 45 20 60 47 14 28 26 38 26 23 0 -23 6 -23 31 -3 27 23 26 30 -4
63 -42 47 -49 46 -93 -14z"/>
<path d="M2440 4001 c0 -13 10 -43 23 -66 64 -121 74 -228 44 -489 -16 -139
-24 -276 -17 -305 l13 -51 39 47 c21 26 38 60 38 75 0 15 10 26 23 23 41 -9
81 164 68 294 -14 144 -231 588 -231 472z"/>
<path d="M3793 3963 c-33 -37 -45 -125 -19 -150 8 -8 16 -25 18 -39 2 -13 32
-107 66 -207 34 -101 68 -238 75 -305 12 -112 15 -119 52 -100 28 16 35 33 25
65 -7 24 -21 82 -31 129 -10 47 -41 142 -70 210 -28 68 -56 138 -63 154 -6 17
31 -26 82 -95 92 -124 121 -152 99 -95 -6 17 -19 30 -29 30 -10 0 -18 14 -18
32 0 65 80 -10 160 -152 9 -16 22 -25 28 -19 6 6 -16 50 -48 99 -32 48 -54 94
-49 102 15 24 95 -66 200 -225 54 -81 105 -150 113 -154 9 -3 11 -15 5 -25 -6
-10 3 -32 20 -50 17 -17 26 -39 20 -50 -6 -10 -3 -18 8 -18 11 0 17 -16 14
-35 -3 -19 -1 -44 6 -55 6 -11 9 -47 6 -80 -4 -47 0 -54 17 -30 16 23 18 15 6
-30 -8 -33 -13 -85 -11 -115 3 -54 -45 -195 -67 -195 -7 0 -7 16 0 35 8 24 0
20 -28 -12 -22 -26 -40 -41 -40 -33 0 8 -15 3 -34 -13 -29 -24 -32 -23 -20 8
14 37 -15 49 -36 15 -7 -11 -21 -20 -32 -20 -11 0 -14 10 -7 22 10 15 1 15
-29 -1 -31 -17 -42 -17 -42 0 0 13 -13 18 -29 12 -15 -6 -39 2 -52 18 -13 16
-34 29 -45 29 -12 0 -4 -13 17 -29 38 -28 38 -28 -1 -21 -22 4 -51 8 -65 8
-14 1 -26 18 -27 37 -1 21 -5 25 -11 10 -6 -14 -23 -25 -39 -25 -68 0 -18 -35
107 -76 122 -39 277 -47 470 -26 8 1 33 38 55 82 22 44 44 80 49 80 17 0 -2
-53 -35 -100 -38 -54 -10 -78 58 -52 41 16 25 552 -18 619 -15 24 -44 86 -63
138 -20 52 -44 95 -53 95 -9 0 -94 103 -188 230 -102 136 -208 254 -261 291
-83 57 -121 97 -64 69 14 -7 8 1 -14 19 -51 41 -97 39 -138 -6z m223 -171 c66
-49 126 -99 134 -112 25 -41 -2 -41 -46 0 -23 22 -49 40 -58 41 -26 1 -198
159 -173 159 12 0 77 -40 143 -88z"/>
<path d="M3630 3920 c-7 -12 -20 -16 -30 -10 -9 5 -13 -10 -8 -35 5 -25 3 -34
-3 -21 -17 34 -77 -32 -136 -148 -61 -121 -107 -359 -119 -616 -12 -250 2
-218 108 240 62 271 100 391 152 485 56 101 84 183 36 105z"/>
<path d="M2454 3732 c-17 -119 -18 -323 -2 -307 6 6 14 51 17 98 3 48 12 103
20 122 8 19 7 68 -3 110 l-18 75 -14 -98z"/>
<path d="M3664 3715 c-46 -75 -129 -330 -166 -511 -14 -68 -34 -124 -43 -124
-10 0 -12 -9 -4 -21 7 -11 2 -34 -12 -50 -13 -16 -19 -47 -13 -69 6 -22 3 -36
-5 -31 -8 6 -25 -46 -37 -115 -12 -68 -28 -143 -35 -167 -12 -41 -7 -42 154
-40 146 3 167 8 174 40 4 25 -1 33 -17 23 -16 -10 -21 3 -17 43 4 34 -2 57
-16 57 -13 0 -30 7 -39 15 -8 9 -37 -5 -63 -30 -39 -36 -28 -4 54 165 102 212
160 418 161 576 0 48 8 82 17 76 17 -11 12 153 -7 203 -15 42 -45 28 -86 -40z"/>
<path d="M912 3663 c-8 -13 -9 -31 -4 -40 14 -23 -69 -232 -163 -413 -59 -113
-74 -162 -74 -255 0 -93 -30 -178 -31 -90 -1 33 -69 -118 -88 -193 -8 -32 -41
-91 -73 -130 -33 -39 -59 -79 -59 -88 0 -18 -69 -182 -101 -239 -24 -44 -24
-75 0 -36 10 17 24 25 30 19 6 -7 -11 -45 -38 -85 -27 -40 -45 -86 -38 -103
15 -41 87 -39 87 3 0 46 93 225 159 305 66 82 289 126 591 118 l180 -5 -7
-371 c-7 -413 -4 -403 -156 -470 -111 -50 -294 -203 -276 -232 6 -10 2 -18
-10 -18 -38 0 -22 -97 23 -139 42 -40 136 -57 136 -25 0 19 280 28 281 8 1 -8
4 -100 7 -205 14 -447 91 -313 124 216 14 215 46 297 51 131 3 -73 5 -80 11
-31 10 75 46 88 46 16 0 -27 8 -54 18 -60 10 -6 14 -27 9 -46 -5 -20 0 -58 11
-85 15 -38 20 5 21 175 l1 224 -105 -47 c-58 -26 -163 -75 -235 -109 -156 -74
-302 -114 -347 -97 -45 17 -42 54 5 54 60 0 102 22 102 52 0 18 24 29 65 30
61 2 62 3 15 17 -51 14 100 61 200 61 21 0 63 22 94 48 l56 49 -7 266 c-4 177
5 341 27 484 18 120 28 222 22 228 -40 40 -490 48 -632 12 -162 -42 -306 -37
-230 8 27 16 30 24 11 24 -21 1 -18 9 10 30 39 29 39 30 0 30 -175 3 146 77
396 92 101 6 203 15 227 20 34 7 42 2 33 -21 -6 -16 -17 -31 -24 -32 -7 0 -26
-4 -43 -7 -16 -3 -104 -11 -194 -19 -91 -7 -185 -22 -210 -33 -45 -20 -45 -20
4 -10 129 27 426 37 412 14 -10 -16 8 -23 57 -23 39 0 71 -9 71 -20 0 -11 22
-20 50 -20 l49 0 -70 193 c-167 462 -281 541 -519 361 l-80 -61 58 62 c31 35
85 76 120 93 l62 31 -60 1 c-39 0 -51 6 -34 17 39 25 198 -6 249 -49 36 -30
35 -25 -7 22 -70 81 -190 267 -225 349 -16 39 -33 57 -41 44z m176 -610 c30
-16 53 -32 50 -36 -2 -4 3 -28 11 -54 21 -65 1 -77 -154 -88 l-136 -10 5 68
c2 38 16 79 30 90 14 12 22 28 17 35 -16 27 124 22 177 -5z"/>
<path d="M5083 3553 c-71 -76 -81 -154 -82 -634 l-1 -456 65 -15 c59 -13 61
-16 19 -26 l-45 -12 1 -1174 c1 -1224 1 -1236 61 -1236 36 0 37 31 34 735 -3
521 3 773 21 865 56 288 28 855 -59 1197 -70 276 -31 752 60 730 53 -12 101
28 63 53 -48 31 -90 23 -137 -27z"/>
<path d="M5246 3504 c-14 -9 -24 -64 -24 -134 0 -66 -2 -133 -5 -150 -5 -29 3
-122 44 -490 31 -277 37 -555 12 -593 -15 -25 -14 -64 4 -141 32 -134 58 -318
44 -304 -6 6 -26 66 -45 134 l-34 124 1 -310 c0 -170 -9 -377 -21 -460 -48
-341 -20 -1180 40 -1180 54 0 57 33 56 590 -1 286 9 615 22 730 43 382 47
1120 6 1120 -30 0 -30 3 3 27 30 22 32 34 13 69 -13 24 -22 73 -21 109 3 92
-39 516 -54 540 -7 11 -11 91 -9 178 3 86 2 157 -2 157 -3 0 -17 -7 -30 -16z"/>
<path d="M2421 2947 l-41 -53 64 -47 c92 -68 129 -62 76 13 -27 38 -38 75 -30
100 18 57 -20 50 -69 -13z"/>
<path d="M3782 2730 c-24 -49 -53 -94 -63 -101 -42 -25 -15 -49 56 -49 51 1
66 6 47 18 -23 15 -24 34 -4 112 31 124 19 131 -36 20z"/>
<path d="M2780 2665 c0 -39 53 -65 129 -64 l81 1 -61 26 c-100 44 -149 56
-149 37z"/>
<path d="M1600 2551 c0 -7 13 -43 28 -80 16 -38 21 -71 11 -75 -9 -3 -12 -119
-5 -260 7 -140 19 -250 27 -245 9 5 20 -2 25 -16 21 -58 75 200 58 277 -24
107 -3 258 36 258 16 0 33 16 36 36 6 29 -4 35 -49 30 -45 -5 -56 2 -57 34 0
29 -16 42 -55 46 -30 4 -55 1 -55 -5z"/>
<path d="M1749 2539 c-6 -11 2 -25 19 -31 32 -12 72 4 72 29 0 22 -77 23 -91
2z"/>
<path d="M3350 2520 c4 -22 0 -40 -9 -40 -17 0 -13 -69 13 -260 l12 -90 18 90
c10 50 13 122 8 160 -8 57 -6 63 11 33 13 -23 18 -106 13 -206 -8 -148 -5
-167 23 -156 17 8 60 22 95 32 36 10 70 27 76 38 7 11 27 12 46 3 35 -17 151
-14 251 5 84 16 312 128 403 199 44 33 68 46 53 27 -41 -52 -1 -42 67 17 42
36 48 47 20 37 -46 -16 -37 -16 -210 -1 -451 37 -625 34 -679 -13 -28 -24 -40
-31 -26 -16 41 47 29 81 -30 84 -54 2 -54 3 -5 12 47 9 47 11 10 26 -35 14
-34 17 15 20 163 12 141 39 -31 39 -141 0 -151 -3 -144 -40z m323 -129 c-6
-15 0 -33 13 -39 13 -6 6 -9 -16 -6 -29 3 -39 -7 -36 -36 3 -22 0 -29 -6 -15
-9 19 -28 14 -75 -18 -53 -36 -48 -28 26 50 95 99 112 110 94 64z m291 -45
l-10 -55 53 35 c37 24 64 30 87 17 28 -15 24 -23 -26 -55 -32 -20 -62 -42 -68
-48 -20 -23 -70 -7 -64 19 5 23 1 23 -30 0 -57 -44 -58 -46 -20 -32 21 7 31 5
24 -7 -17 -27 -91 -66 -88 -46 7 42 -6 44 -46 7 -24 -23 -62 -41 -85 -41 -40
1 -40 2 5 36 34 27 39 41 22 58 -26 26 0 62 76 103 59 31 76 29 46 -7 -39 -47
4 -35 70 19 33 27 61 50 62 50 1 1 -2 -23 -8 -53z"/>
<path d="M2090 2502 l-120 -12 -28 -90 c-30 -97 -62 -132 -85 -95 -32 51 -47
-18 -49 -222 -1 -141 -13 -240 -33 -293 -41 -103 -61 -196 -41 -185 9 4 70 34
136 65 197 94 430 277 430 338 0 19 8 29 19 23 10 -6 23 -3 30 7 9 15 -46 16
-64 1 -3 -2 -16 -5 -30 -7 -14 -2 -22 -21 -18 -42 4 -22 0 -33 -9 -25 -8 9
-41 -9 -72 -38 -31 -30 -56 -48 -56 -40 0 8 -20 4 -45 -10 -41 -21 -43 -21
-17 10 35 42 14 68 -28 33 -16 -14 -30 -19 -30 -12 0 23 49 101 80 127 26 22
26 24 -3 14 -36 -13 -41 35 -8 65 10 9 11 5 3 -9 -9 -16 -2 -25 17 -25 24 0
31 17 28 70 -3 42 -16 70 -31 70 -14 0 -26 9 -26 20 0 11 11 18 25 15 14 -3
24 11 22 30 -1 19 6 30 15 24 10 -7 24 3 30 20 7 17 25 31 40 31 15 0 28 10
28 23 0 27 177 8 208 -23 25 -25 58 -26 43 -1 -21 33 25 42 55 12 27 -26 31
-26 41 0 16 41 48 36 63 -10 15 -50 -70 -222 -172 -344 -50 -61 -69 -97 -53
-103 14 -5 -1 -21 -34 -36 -53 -25 -191 -146 -191 -168 0 -14 226 92 289 136
200 140 318 315 345 510 8 58 17 78 29 60 27 -43 19 -120 -24 -216 -38 -86
-38 -88 -1 -41 66 84 101 249 70 329 -13 34 -489 42 -778 14z m570 -277 c-40
-94 -240 -319 -240 -271 0 13 26 44 58 70 56 44 199 293 205 356 1 17 6 10 11
-14 5 -23 -11 -87 -34 -141z m-590 87 c0 -27 -6 -44 -14 -39 -8 4 -29 -21 -48
-56 -31 -60 -88 -132 -88 -111 0 5 15 44 32 87 18 42 40 97 50 122 23 60 68
58 68 -3z"/>
<path d="M1514 2468 c-8 -8 -15 -155 -15 -326 -1 -172 -9 -357 -18 -412 -19
-114 -10 -137 31 -81 21 30 28 122 30 400 1 265 7 345 21 301 19 -59 9 -577
-14 -740 -11 -75 -10 -78 20 -41 17 21 31 74 31 116 0 43 9 94 19 113 12 22
12 85 1 164 -10 70 -20 194 -22 274 -2 80 -12 151 -22 157 -11 6 -25 29 -33
50 -8 21 -21 32 -29 25z"/>
<path d="M1853 2452 c-6 -16 3 -34 20 -40 42 -16 41 -17 53 28 12 47 -55 58
-73 12z"/>
<path d="M3305 2154 c0 -138 24 -168 59 -74 10 27 11 42 2 33 -8 -9 -26 28
-38 81 l-24 96 1 -136z"/>
<path d="M2997 1890 c-94 -48 -178 -83 -185 -76 -6 7 -12 -2 -12 -21 0 -36
102 -6 178 52 46 34 -53 -82 -144 -169 -42 -40 -87 -78 -100 -83 -35 -14 48
-15 101 0 25 6 39 21 32 34 -8 15 -3 14 13 -1 21 -20 22 -46 3 -130 -27 -126
-13 -209 29 -174 16 13 28 35 28 49 0 14 20 43 45 63 51 42 158 176 189 236
35 68 52 310 22 310 -14 -1 -104 -41 -199 -90z"/>
<path d="M3285 1915 c1 -36 -4 -99 -12 -140 -12 -60 -9 -72 14 -64 15 6 33 49
40 95 7 46 18 104 25 129 10 36 5 45 -28 45 -32 0 -40 -13 -39 -65z"/>
<path d="M2528 1830 c-147 -102 -412 -201 -665 -249 -223 -43 -222 -42 -223
-273 0 -222 -20 -284 -110 -345 -72 -50 -110 -137 -109 -253 l0 -60 39 50 c22
28 39 56 40 63 0 8 35 49 78 93 112 112 250 429 207 473 -6 6 15 33 47 61 32
27 61 41 65 30 3 -11 15 -20 26 -20 11 0 15 7 9 16 -5 9 23 17 64 18 40 1 76
12 80 24 4 12 34 22 66 22 32 0 58 9 58 20 0 11 18 20 40 20 23 0 111 35 197
79 141 70 162 76 207 53 85 -45 141 12 69 69 -66 52 -69 99 -7 99 81 0 134 53
56 56 -36 1 -75 10 -88 20 -16 12 -64 -9 -146 -66z"/>
</g>
</svg>
